<svg xmlns="http://www.w3.org/2000/svg" xmlns:xlink="http://www.w3.org/1999/xlink" viewBox="0 0 399.21 107.88"><defs><style>.cls-1{fill:#63d0df;}.cls-2{fill:url(#linear-gradient);}</style><linearGradient id="linear-gradient" x1="233.7" y1="-2.85" x2="235.31" y2="89.06" gradientUnits="userSpaceOnUse"><stop offset="0" stop-color="#fff"/><stop offset="0.29" stop-color="#f9fafc"/><stop offset="0.66" stop-color="#e9eef2"/><stop offset="1" stop-color="#d5dde6"/></linearGradient></defs><title>Asset 1</title><g id="Layer_2" data-name="Layer 2"><g id="Layer_1-2" data-name="Layer 1"><path class="cls-1" d="M17.82,20.15a6.88,6.88,0,0,1-4.37,2.7,3.69,3.69,0,0,1-3.64-.79c-.71-.5-1.46-.51-1.29-1s.51-.07,1.13-.37,3.24-2.38,3.24-2.38l.24-2.2-1,1.75a30.88,30.88,0,0,1-3,2.1c-.8.39-1.55-.32-1.87-1.28s.22-1.58,1-2.35a9.25,9.25,0,0,1,1.31-1.13s-.86-.76-.24-1.23,2-1.87,2-1.87-.72-1.74-.39-2.37,3-4.14,4.43-5.9c2.14-2.59,3.21-2.72,5.13-1C21.92,4,25.94,7.24,26.67,7.91,24.3,11,18.81,18.62,17.82,20.15ZM29.74,39.89a26.66,26.66,0,0,1,.59-2.74A25,25,0,0,1,32,33.56a24,24,0,0,1-3.41-1.07,21.25,21.25,0,0,1-2.77-1.44,26.12,26.12,0,0,0-2.3,6.47,28.48,28.48,0,0,0-.22,3.83c0,1,6.3.89,7.48.81,1.54-.12,1.38-.52,1.07-1.66-.17-.59-.25-1-.7-1s-.76,0-.79.39c0,.19-.09.3-.34.26S29.72,40.07,29.74,39.89Zm7.51-5.66c.46,1.83,1,5.39.27,5.49-1.91.27-2.35,2.15-1.39,2.15s4.22.16,5.41,0,.86-1.72,1.67-2.41c.47-.4.2-3.29-.28-5a27.37,27.37,0,0,1-2.78,0C38,34.35,37.25,34.23,37.25,34.23ZM29.4,8.5,29.63,12l2.76-3.06,2.48,2.94.53-3.24,2.42,1C36.32,8,35.13,6.8,34.67,6.38c-2.06-1.87-3.42-2.1-4.75-.85a57.65,57.65,0,0,0-4.16,5.07ZM52.22,29.8c-.85-3.44-1.66-7-4.2-8.95-1.45-1.6-5.73-6.34-9.1-10l-3-1.29-.63,3.82L32.37,9.93l-3.3,3.66-.27-4L24.74,12c-1.45,1.95-3.06,4.18-4.63,6.5A148.94,148.94,0,0,0,11.9,32.1,18,18,0,0,0,10.26,41c0,1.24,7.14,1,8.65.94,1.7-.13,1.52-.5,1.17-1.76-.18-.65-.33-1-.82-1s-.84.06-.85.39-.08.3-.36.26-.38-.16-.35-.35a8.1,8.1,0,0,1,.49-1.67,10.63,10.63,0,0,1,1.73-2.55c.78-.88,3-3.18,3-3.18l5.39-8.89-2.85,6.72a18.9,18.9,0,0,0,8.24,3.21,47.22,47.22,0,0,0,9.6.64l-2.4-7.53s7,13.6,5.08,13.67S43.65,42,44.62,42s5.58.13,6.77,0,1.34-2.34,2.23-3.43S53.08,33.28,52.22,29.8ZM42.49,53.69H35v5h7.29V61.3H35v5.81h7.51v2.66H32.15V51H42.49ZM50.12,60,45,51h3.22l3.58,6.35L55.52,51h3.24L53.36,60,59,69.76H55.86l-4.15-7.17-4.27,7.17h-3.2ZM12.41,65.56H5L3,69.76H0L8.81,50.85l8.5,18.91H14.22Zm-1.15-2.64L8.78,57.19,6.14,62.92Zm10.57-.76v7.61H19V51h3.2a14.45,14.45,0,0,1,3.56.33,4.77,4.77,0,0,1,2.14,1.24,5.33,5.33,0,0,1,1.61,4,5.14,5.14,0,0,1-1.72,4.08,6.82,6.82,0,0,1-4.65,1.5Zm0-2.62h1.06q3.89,0,3.89-3t-4-2.9h-.93Z"/><path class="cls-1" d="M209.07,84.87h2.45l6,19.12,6-19.12H226l5.88,18.78,5.92-18.78h2.45l-7.3,22.63h-2.24l-6-18.64-6,18.64h-2.38Z"/><path class="cls-1" d="M244,103.42a13.94,13.94,0,0,1,0-8.79,5.91,5.91,0,0,1,1.94-2.71,8.11,8.11,0,0,1,2.49-1.27,9.88,9.88,0,0,1,2.8-.37,10.06,10.06,0,0,1,2.82.37,8.07,8.07,0,0,1,2.51,1.27,5.91,5.91,0,0,1,1.94,2.71,13.94,13.94,0,0,1,0,8.79,5.91,5.91,0,0,1-1.94,2.71,8,8,0,0,1-2.51,1.27,10.06,10.06,0,0,1-2.82.37,9.88,9.88,0,0,1-2.8-.37,8.08,8.08,0,0,1-2.49-1.27A5.91,5.91,0,0,1,244,103.42Zm3-9.35q-1.31,1.56-1.31,5t1.31,5a5.18,5.18,0,0,0,4.19,1.56,5.24,5.24,0,0,0,4.2-1.54q1.32-1.54,1.32-5t-1.32-5a5.24,5.24,0,0,0-4.2-1.54A5.18,5.18,0,0,0,247,94.07Z"/><path class="cls-1" d="M264.94,107.5V91.91a21.09,21.09,0,0,1,8.22-1.6v2.3a24.13,24.13,0,0,0-5.76.88v14Z"/><path class="cls-1" d="M278.4,107.5V84.13h2.45V107.5Z"/><path class="cls-1" d="M287.21,98.82a11.92,11.92,0,0,1,.68-4.28,5.7,5.7,0,0,1,1.88-2.64,7.8,7.8,0,0,1,2.44-1.23,9.92,9.92,0,0,1,2.74-.36,13.38,13.38,0,0,1,4.2.65V84.13h2.45v18.32a5.19,5.19,0,0,1-.2,1.39,6.64,6.64,0,0,1-.83,1.7,4.44,4.44,0,0,1-2.16,1.61,10,10,0,0,1-3.76.62,10.3,10.3,0,0,1-1.85-.17,6.57,6.57,0,0,1-2-.75,6.21,6.21,0,0,1-1.81-1.51,7.8,7.8,0,0,1-1.29-2.61A13,13,0,0,1,287.21,98.82Zm2.45,0a11.83,11.83,0,0,0,.46,3.58,4.14,4.14,0,0,0,1.27,2.07,4.72,4.72,0,0,0,1.55.84,6.14,6.14,0,0,0,1.7.22q4.5,0,4.5-3V93.39a11,11,0,0,0-4.2-.85,5,5,0,0,0-4,1.49Q289.66,95.52,289.66,98.82Z"/><path class="cls-1" d="M321.61,107.5v-2.14q1.69-1.26,3.45-2.8t3.7-3.56a20.47,20.47,0,0,0,3.13-4.17,8.14,8.14,0,0,0,1.2-3.88q0-3.94-5.33-3.94a10.08,10.08,0,0,0-5.93,2V86.3A11.67,11.67,0,0,1,328,84.57q3.86,0,5.71,1.86A6.17,6.17,0,0,1,335.54,91a9.2,9.2,0,0,1-.93,3.85,17.64,17.64,0,0,1-2.51,3.91,43.44,43.44,0,0,1-3.15,3.41q-1.56,1.52-3.32,2.94h10.24v2.43Z"/><path class="cls-1" d="M350.52,107.88q-8.93,0-8.93-11.6t8.93-11.6q8.93,0,8.93,11.6T350.52,107.88ZM344,96.28a19.36,19.36,0,0,0,.39,4.15,9.09,9.09,0,0,0,1,2.73,4.76,4.76,0,0,0,1.52,1.57,5.27,5.27,0,0,0,1.73.75,10.2,10.2,0,0,0,3.66,0,5.25,5.25,0,0,0,1.73-.75,4.84,4.84,0,0,0,1.53-1.57,8.92,8.92,0,0,0,1-2.73,19.32,19.32,0,0,0,.39-4.16,18.38,18.38,0,0,0-.56-4.94,5.45,5.45,0,0,0-3.59-4.1,8.54,8.54,0,0,0-4.65,0,5.41,5.41,0,0,0-3.59,4.1A18.65,18.65,0,0,0,344,96.28Z"/><path class="cls-1" d="M365.44,90.41V87.52l4.17-2.65h2.78V107.5h-2.45V87.42Z"/><path class="cls-1" d="M380.81,87.31V84.87h15.44v2.27l-9.81,20.36h-2.72l9.87-20.19Z"/><path class="cls-2" d="M70.18,69.76V0H95.31a37.59,37.59,0,0,1,8.89,1,27.1,27.1,0,0,1,7.63,3.13,14.9,14.9,0,0,1,5.59,6.11,20.27,20.27,0,0,1,2,9.37q0,9.23-8.27,13.53,12.16,4.38,12.16,16.09a27.19,27.19,0,0,1-.48,5.27,18.54,18.54,0,0,1-2.14,5.4,16.29,16.29,0,0,1-4.34,5,23.08,23.08,0,0,1-7.43,3.46,39.33,39.33,0,0,1-11.13,1.41ZM82.74,28.45H96q10.88,0,10.88-8.42,0-9.24-11.8-9.25H82.74Zm0,30.23H97.2q13.59,0,13.58-10.11,0-9-14-9h-14Zm55.19-52.2a6.33,6.33,0,1,0,6.33,6.33A6.33,6.33,0,0,0,137.93,6.48ZM131.6,69.76V25.85h12.56V69.76Zm20.77-26.23a36.63,36.63,0,0,1,1.79-12,22.86,22.86,0,0,1,4.24-7.85,19.72,19.72,0,0,1,5.8-4.4A20.93,20.93,0,0,1,170,17.16a30.81,30.81,0,0,1,5-.41q11,0,16.16,5a16.27,16.27,0,0,1,5.18,12.16V71a23.69,23.69,0,0,1-.46,4.75,18.74,18.74,0,0,1-1.94,5,15,15,0,0,1-3.93,4.7,21,21,0,0,1-6.9,3.29,35.49,35.49,0,0,1-10.32,1.35A51,51,0,0,1,157.78,88V76.76a42.88,42.88,0,0,0,13.64,2.09,31.89,31.89,0,0,0,7.15-.65,6.16,6.16,0,0,0,3.75-2.07,7.9,7.9,0,0,0,1.25-2.39,11.2,11.2,0,0,0,.25-2.69V68.23a44.33,44.33,0,0,1-7.92.87q-11.39,0-17.47-6.59T152.36,43.54Zm12.56.23q0,8.76,2.81,11.89t8.58,3.13a39.4,39.4,0,0,0,7.51-.71V33.84q0-5.8-8.63-5.8H175a8.64,8.64,0,0,0-7.56,3.64Q164.93,35.32,164.93,43.77Zm42.32,26V0h24.08q16.2,0,24.59,8.89t8.38,26q0,17.06-8.36,25.95t-24.61,8.89Zm12.56-11.29H231.3q10.88,0,15.65-5.51t4.78-18q0-12.62-4.78-18.13T231.3,11.29H219.81Zm47.63-5.77a17.67,17.67,0,0,1,.31-3.24,15.68,15.68,0,0,1,1.62-4.16,14.42,14.42,0,0,1,3.57-4.39,19.33,19.33,0,0,1,6.68-3.24A35.81,35.81,0,0,1,290,36.31a63.41,63.41,0,0,1,9.17.71q0-10-11.05-10a40.49,40.49,0,0,0-15.34,2.66V19.41a46.28,46.28,0,0,1,16.05-2.66q11.17,0,17.09,5.7t5.92,16.47V53a16.6,16.6,0,0,1-5.38,12.39q-5.38,5.18-16.55,5.18-11.56,0-17-5.21A16.84,16.84,0,0,1,267.44,52.71ZM280,51.12q0,8.38,9.83,8.38h.1q9.37,0,9.37-7.92V45a63,63,0,0,0-7.49-.67Q280.06,44.33,280,51.12Zm36.29-18.27V22.07h8.78V12.88a6.28,6.28,0,0,1,6.28-6.28h0a6.28,6.28,0,0,1,6.28,6.28v9.19H350V32.85H337.64V54.08q0,3.37,1.4,4.55t5,1.17a14.94,14.94,0,0,0,6-1.12V69a20.65,20.65,0,0,1-8,1.53h-.25q-7.76,0-12.21-4.6t-4.44-12.67V32.85Zm38.49,19.86a17.67,17.67,0,0,1,.31-3.24,15.68,15.68,0,0,1,1.62-4.16,14.42,14.42,0,0,1,3.57-4.39A19.33,19.33,0,0,1,367,37.66a35.81,35.81,0,0,1,10.43-1.35,63.41,63.41,0,0,1,9.17.71q0-10-11.05-10a40.49,40.49,0,0,0-15.34,2.66V19.41a46.28,46.28,0,0,1,16.05-2.66q11.17,0,17.09,5.7t5.92,16.47V53a16.6,16.6,0,0,1-5.38,12.39q-5.38,5.18-16.55,5.18-11.56,0-17-5.21A16.84,16.84,0,0,1,354.78,52.71Zm12.56-1.58q0,8.38,9.83,8.38h.1q9.37,0,9.37-7.92V45a63,63,0,0,0-7.49-.67Q367.4,44.33,367.34,51.12Z"/></g></g></svg>